<svg height="480pt" viewBox="0 0 480.01712 480" width="480pt" xmlns="http://www.w3.org/2000/svg"><path d="m480.015625 248.007812c0-13.253906-10.742187-24-24-24h-2.101563l-43.578124-141.144531c-2.433594-10.996093-12.175782-18.832031-23.4375-18.855469h-21.328126c-3.910156 0-7.246093-2.828124-7.890624-6.6875l-3.542969-21.253906c-1.898438-11.589844-11.929688-20.085937-23.671875-20.058594h-11.917969c-3.378906-9.554687-12.394531-15.9570308-22.53125-15.9999995h-112c-10.132813.0429687-19.148437 6.4453125-22.527344 15.9999995h-11.917969c-11.746093-.027343-21.773437 8.46875-23.671874 20.058594l-3.546876 21.261719c-.644531 3.855469-3.976562 6.679687-7.886718 6.679687h-21.328125c-11.265625.023438-21.003907 7.859376-23.441407 18.855469l-43.574218 141.144531h-2.105469c-11.875-.042968-21.984375 8.628907-23.75 20.371094-1.765625 11.742188 5.347656 23.003906 16.710937 26.453125l31.136719 202.402344c.601563 3.898437 3.957031 6.773437 7.902344 6.773437h368c3.949219 0 7.304687-2.882812 7.90625-6.785156l31.136719-202.398437c10.042968-3.066407 16.917968-12.316407 16.957031-22.816407zm-296-232h112c4.417969 0 8 3.582032 8 8 0 4.417969-3.582031 8-8 8h-112c-4.417969 0-8-3.582031-8-8 0-4.417968 3.582031-8 8-8zm-98.925781 71.199219c.082031-.261719.148437-.527343.199218-.796875.761719-3.730468 4.042969-6.40625 7.847657-6.402344h21.328125c11.742187.03125 21.773437-8.46875 23.671875-20.054687l3.542969-21.265625c.644531-3.851562 3.980468-6.679688 7.890624-6.679688h11.917969c3.378907 9.554688 12.394531 15.957032 22.527344 16h112c10.136719-.042968 19.152344-6.445312 22.53125-16h11.917969c3.910156.003907 7.246094 2.832032 7.886718 6.6875l3.546876 21.257813c1.898437 11.585937 11.925781 20.085937 23.671874 20.054687h21.328126c3.804687-.003906 7.085937 2.671876 7.847656 6.402344.050781.269532.117187.535156.199218.796875l42.230469 136.800781h-89.160156l3.203125-62.847656c.277344-6.578125-2.132812-12.984375-6.679688-17.742187-3.992187-4.160157-9.363281-6.722657-15.105468-7.203125l6.480468-38.902344c.382813-2.320312-.273437-4.6875-1.792968-6.480469-1.523438-1.792969-3.753906-2.824219-6.105469-2.824219h-32c-2.351563 0-4.582031 1.039063-6.101563 2.832032-1.519531 1.796875-2.171874 4.167968-1.785156 6.488281l6.472656 38.824219c-12.644531.746094-22.53125 11.191406-22.585937 23.855468v41.601563c-11.203125-26.082031-33.476563-45.792969-60.726563-53.746094l12.488282-49.925781-15.519532-3.890625-12.671874 50.761719c-3.835938-.492188-7.699219-.761719-11.570313-.800782-46.917969-.25-87.039063 33.6875-94.574219 80h-46.585937zm101.703125 92.722657c-3.929688-4.023438-5.449219-9.816407-4-15.25l-12.800781-3.421876c4.632812-.820312 9.324218-1.238281 14.023437-1.25 2.585937 0 5.144531.121094 7.664063.359376zm3.152343 19.808593c17.074219 4.578125 34.625-5.550781 39.199219-22.625l-15.457031-4.144531c-1.503906 5.5625-5.894531 9.875-11.476562 11.289062l5.199218-20.800781c28.121094 8.4375 49.269532 31.742188 54.941406 60.550781h-156.671874c6.152343-31.175781 30.335937-55.65625 61.433593-62.183593-3.761719 16.710937 6.300781 33.421875 22.832031 37.914062zm98.070313-15.730469h16v-16h-16v-8c0-4.417968 3.582031-8 8-8h31.203125c2.175781-.003906 4.253906.890626 5.75 2.472657 1.535156 1.582031 2.351562 3.726562 2.257812 5.929687l-2 39.597656h-21.210937v16h20.402344l-.402344 8h-44zm17.449219-80h13.105468l-5.328124 32h-2.449219zm111.6875 360h-354.269532l-29.539062-192h413.34375zm38.863281-208h-432c-4.417969 0-8-3.582031-8-8 0-4.417968 3.582031-8 8-8h432c4.417969 0 8 3.582032 8 8 0 4.417969-3.582031 8-8 8zm0 0"/><path d="m240.015625 432.007812c13.257813 0 24-10.746093 24-24v-80c0-13.253906-10.742187-24-24-24-13.253906 0-24 10.746094-24 24v80c0 13.253907 10.746094 24 24 24zm-8-104c0-4.417968 3.582031-8 8-8s8 3.582032 8 8v80c0 4.417969-3.582031 8-8 8s-8-3.582031-8-8zm0 0"/><path d="m336.015625 432.007812c13.257813 0 24-10.746093 24-24v-80c0-13.253906-10.742187-24-24-24-13.253906 0-24 10.746094-24 24v80c0 13.253907 10.746094 24 24 24zm-8-104c0-4.417968 3.582031-8 8-8s8 3.582032 8 8v80c0 4.417969-3.582031 8-8 8s-8-3.582031-8-8zm0 0"/><path d="m144.015625 432.007812c13.257813 0 24-10.746093 24-24v-80c0-13.253906-10.742187-24-24-24-13.253906 0-24 10.746094-24 24v80c0 13.253907 10.746094 24 24 24zm-8-104c0-4.417968 3.582031-8 8-8s8 3.582032 8 8v80c0 4.417969-3.582031 8-8 8s-8-3.582031-8-8zm0 0"/></svg>